<?xml version="1.0" encoding="utf-8"?>
<!-- Generator: Adobe Illustrator 19.0.0, SVG Export Plug-In . SVG Version: 6.00 Build 0)  -->
<svg version="1.1" id="Layer_1" xmlns="http://www.w3.org/2000/svg" xmlns:xlink="http://www.w3.org/1999/xlink" x="0px" y="0px"
	 viewBox="0 0 1426.5 285.4" style="enable-background:new 0 0 1426.5 285.4;" xml:space="preserve">
<style type="text/css">
	.st0{fill:none;stroke:#FFFFFF;stroke-miterlimit:10;}
	.st1{fill:#FFFFFF;}
</style>
<polyline class="st0" points="-14,159.4 140,135.4 274,147.4 466,105.4 662,115.4 862,51.4 1064,55.4 1266,11.4 1434,37.4 "/>
<polyline class="st0" points="-2.7,238.7 130.7,179.4 276,206.1 465.3,158.1 664,172.1 861.3,114.7 1056.7,146.1 1265.3,80.1 
	1433.3,116.7 "/>
<polygon class="st1" points="-4.7,288.7 -4.7,269.4 133.3,235.4 282,244.7 463.3,206.7 667.3,233.4 860,166.7 1062.7,202.1 
	1263.3,152.1 1429.3,166.1 1429.3,288.7 "/>
<circle class="st1" cx="1266" cy="11.4" r="3.5"/>
<circle class="st1" cx="274.2" cy="147.4" r="3.5"/>
</svg>
